<?xml version="1.0" encoding="UTF-8" standalone="no"?>
<!-- Created with Inkscape (http://www.inkscape.org/) -->
<svg
   xmlns:dc="http://purl.org/dc/elements/1.1/"
   xmlns:cc="http://creativecommons.org/ns#"
   xmlns:rdf="http://www.w3.org/1999/02/22-rdf-syntax-ns#"
   xmlns:svg="http://www.w3.org/2000/svg"
   xmlns="http://www.w3.org/2000/svg"
   xmlns:sodipodi="http://sodipodi.sourceforge.net/DTD/sodipodi-0.dtd"
   xmlns:inkscape="http://www.inkscape.org/namespaces/inkscape"
   width="350.00024"
   height="355.03799"
   id="svg2443"
   sodipodi:version="0.32"
   inkscape:version="0.46"
   version="1.0"
   sodipodi:docname="Cartography of Africa.svg"
   inkscape:output_extension="org.inkscape.output.svg.inkscape">
  <defs
     id="defs2445">
    <linearGradient
       id="linearGradient15386">
      <stop
         style="stop-color:#35a5ec;stop-opacity:1"
         offset="0"
         id="stop15388" />
      <stop
         style="stop-color:#2681da;stop-opacity:1"
         offset="1"
         id="stop15390" />
    </linearGradient>
    <inkscape:perspective
       sodipodi:type="inkscape:persp3d"
       inkscape:vp_x="0 : 526.18109 : 1"
       inkscape:vp_y="0 : 1000 : 0"
       inkscape:vp_z="744.09448 : 526.18109 : 1"
       inkscape:persp3d-origin="372.04724 : 350.78739 : 1"
       id="perspective2451" />
  </defs>
  <sodipodi:namedview
     id="base"
     pagecolor="#ffffff"
     bordercolor="#666666"
     borderopacity="1.0"
     inkscape:pageopacity="0.0"
     inkscape:pageshadow="2"
     inkscape:zoom="1.5181474"
     inkscape:cx="175.00012"
     inkscape:cy="177.519"
     inkscape:document-units="px"
     inkscape:current-layer="layer1"
     showgrid="true"
     inkscape:window-width="1280"
     inkscape:window-height="744"
     inkscape:window-x="-4"
     inkscape:window-y="-4">
    <inkscape:grid
       type="xygrid"
       id="grid2453"
       visible="true"
       enabled="true" />
  </sodipodi:namedview>
  <metadata
     id="metadata2448">
    <rdf:RDF>
      <cc:Work
         rdf:about="">
        <dc:format>image/svg+xml</dc:format>
        <dc:type
           rdf:resource="http://purl.org/dc/dcmitype/StillImage" />
      </cc:Work>
    </rdf:RDF>
  </metadata>
  <g
     inkscape:label="Capa 1"
     inkscape:groupmode="layer"
     id="layer1"
     transform="translate(-137.17508,-2.79295)">
    <path
       id="path14267"
       d="M 272.13745,2.79295 L 264.4223,5.1533027 L 258.43336,3.8145952 L 253.71268,5.8226437 L 248.0408,4.483949 L 235.95725,6.4919975 L 230.95474,9.1693998 L 227.29092,9.8387536 L 222.25317,12.516156 L 218.90642,12.516156 L 218.55412,10.860399 L 211.54355,11.882044 L 209.18321,8.8171083 L 207.17516,9.4864621 L 201.82034,17.201619 L 190.08907,23.578069 L 186.42527,28.615824 L 185.40362,34.604753 L 185.05132,34.957045 L 182.37391,38.303801 L 175.6804,42.989264 L 169.69147,44.363188 L 165.3231,50.387347 L 161.30698,52.71247 L 157.96022,59.723045 L 153.30997,63.492538 L 146.22896,73.814652 L 144.57319,78.500103 L 145.52438,76.844333 L 147.56766,81.49458 L 145.24253,85.862969 L 145.87664,93.930417 L 141.86056,104.28774 L 137.17508,109.00843 L 140.87413,113.30638 L 140.52185,116.01899 L 144.57319,115.34965 L 141.22645,116.68834 L 139.8525,115.70194 L 138.83087,120.0351 L 141.22645,120.0351 L 138.83087,121.02152 L 142.17761,121.37381 L 140.52185,122.71251 L 142.5299,123.06479 L 141.86056,124.36827 L 146.54601,123.06479 L 143.86861,124.08644 L 145.87664,125.03763 L 143.55155,126.41156 L 144.57319,128.06732 L 145.87664,127.43319 L 145.24253,128.73667 L 146.89829,127.71504 L 147.56766,132.43572 L 149.5757,133.42214 L 151.58376,134.44377 L 150.56212,136.09954 L 152.25312,136.76888 L 152.57017,141.13728 L 154.26116,140.82022 L 151.93606,141.48958 L 155.59987,145.1534 L 155.2828,147.16144 L 160.95468,150.15592 L 172.01658,160.54846 L 177.72369,162.90882 L 184.41721,159.56206 L 194.80978,158.22335 L 204.49775,160.90077 L 214.53801,156.2153 L 221.58383,153.50266 L 233.98443,150.86049 L 231.94114,152.19921 L 236.97891,152.55149 L 240.32567,155.54594 L 242.01664,154.5243 L 240.32567,155.89825 L 242.68601,156.2153 L 240.995,156.53237 L 241.69959,157.554 L 243.35535,156.53237 L 241.69959,158.54041 L 245.04635,163.26109 L 248.71017,162.90882 L 248.71017,161.57011 L 249.37952,162.90882 L 249.06244,161.21782 L 250.04886,162.90882 L 250.7182,160.90077 L 252.05692,162.23946 L 256.77761,161.88717 L 256.42531,159.91435 L 258.08108,162.23946 L 259.77208,160.90077 L 261.42784,164.91686 L 264.14046,164.24751 L 264.77459,165.58623 L 263.47113,165.58623 L 265.44393,169.60234 L 262.09719,179.64258 L 264.14046,179.99489 L 263.78818,183.34164 L 262.09719,182.98935 L 265.44393,184.68035 L 263.11882,185.34969 L 262.09719,184.011 L 261.07556,189.36581 L 258.75042,189.36581 L 263.78818,198.41965 L 274.8501,209.12928 L 277.17521,215.82279 L 279.85262,217.16151 L 277.52749,217.83085 L 283.55166,229.87918 L 281.54361,233.22592 L 283.86873,237.94663 L 286.19382,243.2662 L 285.24266,249.67788 L 279.50032,255.66681 L 275.83649,268.10265 L 276.50585,278.81228 L 290.24519,301.21793 L 292.60552,319.29042 L 303.31512,336.41171 L 307.96536,344.09165 L 308.31765,347.75545 L 306.30959,349.12939 L 308.66995,355.47062 L 310.36094,354.48419 L 315.36345,357.83095 L 326.74244,354.16714 L 336.46564,355.15355 L 346.18884,352.47616 L 360.59752,342.43586 L 365.28296,336.41171 L 367.29102,334.05137 L 372.61061,329.68298 L 376.979,318.33923 L 376.30966,319.29042 L 374.97095,317.63465 L 389.7319,308.93309 L 391.03538,299.56216 L 388.04093,291.52995 L 388.35797,287.16155 L 389.37961,288.1832 L 396.74249,283.14544 L 399.77218,278.14293 L 414.85019,271.09711 L 415.51956,269.75842 L 420.16978,263.06491 L 419.21859,253.34169 L 420.16978,252.32007 L 419.50044,244.95719 L 421.19142,241.61043 L 418.19696,239.28532 L 416.82302,238.26368 L 416.82302,237.94663 L 415.51956,229.20983 L 416.50596,226.8847 L 415.16725,226.8847 L 417.17531,222.5163 L 413.47628,217.51377 L 415.83661,210.46798 L 419.8527,202.08349 L 420.87436,200.07544 L 424.89047,197.75033 L 423.86884,196.09456 L 426.58147,196.09456 L 437.29102,181.96772 L 448.63476,172.94907 L 457.01927,162.23946 L 468.08119,136.45183 L 468.08119,133.42214 L 467.76419,131.73114 L 470.08929,131.09701 L 468.43347,131.09701 L 468.75059,124.08644 L 466.39019,123.06479 L 461.07066,126.41156 L 451.98158,127.43319 L 448.00065,129.75832 L 444.97096,128.73667 L 439.61614,131.41407 L 432.60562,125.03763 L 429.57593,125.38992 L 433.59204,123.06479 L 432.92263,120.70447 L 421.86076,109.64255 L 417.17531,107.98677 L 416.15367,106.29578 L 415.16725,105.30938 L 414.85019,107.31743 L 407.80439,92.239406 L 401.74501,88.188079 L 399.10283,76.844333 L 400.08925,77.478457 L 397.44707,72.475944 L 391.38768,68.107543 L 389.7319,63.422092 L 391.03538,63.422092 L 387.68863,60.744677 L 378.67,44.997313 L 373.63226,39.642496 L 372.43447,35.626399 C 372.42111,35.605984 372.41176,35.576979 372.39924,35.55594 C 372.33153,35.442222 372.25814,35.308598 372.22309,35.16842 C 371.99327,34.249166 371.44805,33.281739 371.44805,32.103497 C 371.44804,31.937431 371.44805,31.776355 371.44805,31.610289 C 371.44805,31.106097 371.38454,30.579938 371.30713,30.060206 L 369.61615,30.30681 L 368.62973,28.263533 L 364.61363,27.911241 L 356.54618,31.257997 L 347.2105,28.615824 L 339.14305,28.263533 L 337.80434,26.255472 L 330.44148,25.269068 L 329.41984,23.225778 L 323.39567,21.922312 L 316.34987,25.269068 L 316.34987,31.257997 L 316.03281,31.257997 L 311.31211,33.653567 L 306.30959,30.940935 L 296.93869,28.615824 L 294.57833,24.247423 L 286.54613,21.922312 L 281.89589,22.239374 L 272.80681,18.223265 L 272.13745,16.179974 L 277.52749,11.882044 L 274.8501,7.830705 L 277.52749,3.8145952 L 274.8501,5.4703523 L 272.13745,2.79295 z M 153.30997,63.492538 L 153.59182,63.069788 L 152.57017,64.091433 L 153.30997,63.492538 z M 208.7957,8.4296005 L 208.86613,8.5352879 L 209.04228,8.4296005 C 208.96036,8.4339405 208.87784,8.4262405 208.7957,8.4296005 z M 169.33918,38.656092 L 166.97884,40.347079 L 168.66984,39.642496 L 169.33918,38.656092 z M 166.97884,40.664141 L 163.63209,44.010897 L 165.64015,43.341543 L 166.97884,40.664141 z M 157.96022,41.650557 L 154.61346,42.672189 L 154.93053,44.363188 L 157.96022,41.650557 z M 158.94662,43.341543 L 158.27728,44.680251 L 159.93305,44.363188 L 158.94662,43.341543 z M 377.64837,63.069788 L 379.33935,68.459835 L 374.65389,69.481467 L 370.28549,75.153347 L 372.96289,69.798542 L 376.979,68.812126 L 377.64837,63.069788 z M 152.25312,99.24998 L 155.59987,101.96261 L 157.96022,106.96514 L 152.25312,99.602284 L 144.57319,99.919334 L 152.25312,99.24998 z M 415.51956,103.26609 L 415.83661,104.64003 L 417.84467,104.95709 L 415.83661,103.26609 L 415.51956,103.26609 z M 196.78258,104.28774 L 198.47358,106.29578 L 197.13488,106.61286 L 196.78258,104.28774 z M 285.24266,113.02454 L 286.19382,116.37128 L 288.23711,115.34965 L 288.23711,117.00542 L 292.92258,117.67475 L 286.89842,120.70447 L 283.19937,113.65865 L 285.24266,113.02454 z M 405.44405,121.37381 L 404.80993,125.03763 L 403.11894,122.39545 L 405.44405,121.37381 z M 236.66184,126.41156 L 239.6563,128.73667 L 238.6699,133.42214 L 238.6699,134.12672 L 238.35282,133.42214 L 237.33118,131.41407 L 239.30402,128.73667 L 236.66184,126.41156 z M 209.88779,138.14282 L 215.20736,144.48405 L 215.55965,145.1534 L 216.5813,138.77693 L 215.20736,153.50266 L 215.20736,151.8469 L 214.8903,151.52984 L 211.19125,149.83884 L 214.53801,150.86049 L 214.8903,150.15592 L 215.55965,147.51374 L 214.8903,146.4921 L 213.86866,146.13981 L 211.54355,146.13981 L 214.53801,145.1534 L 211.19125,143.46239 L 210.52191,140.46793 L 206.82285,140.46793 L 210.20485,140.11565 L 209.88779,138.14282 z M 247.37147,140.46793 L 249.37952,144.83633 L 247.37147,157.20173 L 249.06244,144.48405 L 247.37147,140.46793 z M 188.43332,143.14533 L 187.09461,146.80916 L 187.76396,147.83081 L 189.06743,146.80916 L 188.43332,149.48656 L 186.42527,147.16144 L 188.43332,143.14533 z M 401.11089,161.21782 L 403.43599,173.30138 L 399.41989,166.60786 L 401.11089,161.21782 z M 260.12436,165.93851 L 257.41173,167.91134 L 257.41173,168.26362 L 258.75042,168.93299 L 260.12436,165.93851 z M 308.66995,172.94907 L 306.30959,188.02711 L 310.00864,180.31195 L 314.37704,177.98684 L 318.04087,175.97879 L 319.02728,175.27421 L 330.01873,174.39348 L 330.44148,174.32302 L 330.51194,174.35824 L 331.11082,174.32302 L 342.17273,181.96772 L 330.51194,174.35824 L 330.01873,174.39348 L 318.04087,176.96519 L 314.37704,177.98684 L 309.65636,181.3336 L 310.00864,185.66675 L 298.27738,197.04573 L 297.92509,201.76642 L 297.60803,197.39801 L 305.99254,188.02711 L 308.66995,172.94907 z M 377.64837,173.30138 L 376.62672,176.96519 L 372.96289,180.31195 L 372.61061,177.98684 L 377.64837,173.30138 z M 388.04093,176.96519 L 386.03286,177.66979 L 386.70222,179.32553 L 383.35545,178.3039 L 388.04093,176.96519 z M 387.37156,182.98935 L 388.04093,184.68035 L 390.40127,184.36329 L 391.70474,187.71003 L 394.10031,186.33611 L 394.73442,187.35777 L 390.71833,188.69645 L 390.40127,193.69897 L 386.38516,196.37639 L 389.7319,197.39801 L 387.37156,199.08902 L 385.01122,198.41965 L 385.36351,200.74477 L 384.0248,201.76642 L 384.34187,199.08902 L 381.3474,197.75033 L 379.33935,200.74477 L 378.31771,196.37639 L 380.32577,186.01905 L 383.67252,184.36329 L 385.36351,185.34969 L 387.37156,182.98935 z M 369.61615,186.33611 L 366.93874,189.01351 L 367.60808,186.6884 L 369.61615,186.33611 z M 265.44393,190.03516 L 267.13493,190.70451 L 265.44393,191.72615 L 265.44393,190.03516 z M 310.36094,194.05128 L 308.987,196.09456 L 310.678,196.72867 L 308.66995,199.75837 L 307.96536,194.72061 L 310.36094,194.05128 z M 365.28296,194.05128 L 366.93874,196.37639 L 364.26133,198.73673 L 365.28296,194.05128 z M 366.58644,203.42217 L 369.61615,216.17509 L 368.27744,218.5002 L 372.61061,222.16402 L 375.32324,231.57018 L 371.97647,230.23147 L 370.28549,223.85502 L 365.60004,217.83085 L 365.91711,207.086 L 364.93068,208.45994 L 366.58644,203.42217 z M 416.15367,215.82279 L 415.51956,218.14792 L 417.17531,219.83891 L 416.50596,217.16151 L 416.15367,215.82279 z M 379.33935,225.51078 L 382.36905,228.22341 L 379.33935,227.55407 L 379.33935,225.51078 z M 367.96038,230.23147 L 369.9332,230.54853 L 366.58644,232.55658 L 367.96038,230.23147 z M 364.93068,230.90082 L 362.57034,235.26921 L 360.59752,235.58627 L 360.91459,233.22592 L 364.93068,230.90082 z M 389.37961,235.58627 L 391.70474,237.94663 L 393.39573,245.62656 L 391.70474,250.62908 L 393.74802,260.70457 L 390.71833,259.36586 L 388.35797,249.67788 L 390.40127,246.6482 L 389.06256,237.94663 L 388.71027,236.57269 L 389.06256,236.57269 L 389.37961,235.58627 z M 368.27744,242.63209 L 368.62973,242.63209 L 368.62973,244.64013 L 366.93874,245.30948 L 368.27744,242.63209 z M 433.59204,245.30948 L 432.92263,246.96525 L 433.90904,247.98688 L 433.59204,245.30948 z M 460.04898,248.30395 L 457.37156,250.62908 L 457.01927,255.34976 L 454.37715,257.67487 L 453.00316,256.68844 L 453.00316,260.03521 L 451.98158,260.03521 L 450.00876,264.05132 L 450.32575,262.04327 L 448.00065,264.72069 L 448.63476,266.05937 L 447.33135,266.72874 L 447.68365,264.72069 L 445.28807,266.41166 L 445.28807,268.73677 L 443.98454,267.39808 L 435.95232,269.75842 L 432.60562,276.45194 L 433.27493,288.85254 L 427.88494,295.19376 L 425.91212,300.23153 L 426.58147,313.30149 L 430.24528,315.27431 L 439.61614,312.94918 L 456.03286,279.79869 L 457.01927,274.79617 L 459.06256,273.10517 L 459.06256,266.41166 L 460.36609,266.05937 L 461.07066,268.73677 L 462.72637,266.05937 L 462.05708,253.69399 L 459.37968,249.99494 L 460.04898,248.30395 z M 438.27744,248.65625 L 437.29102,249.3256 L 438.59456,250.31199 L 438.27744,248.65625 z M 362.57034,271.76647 L 357.92012,273.10517 L 352.21302,278.81228 L 356.54618,273.10517 L 362.57034,271.76647 z M 486.85832,288.85254 L 485.48431,291.52995 L 487.17532,290.15602 L 486.85832,288.85254 z M 478.47381,293.22095 L 476.81798,293.85506 L 478.47381,295.54606 L 478.47381,293.22095 z M 345.83655,324.32817 L 344.81492,326.33622 L 343.01824,325.77254 L 342.94779,325.77254 L 344.14558,326.68853 L 342.48978,326.01916 L 342.94779,325.77254 L 342.8421,325.7021 L 343.01824,325.77254 L 345.83655,324.32817 z"
       style="fill:#008080;fill-opacity:1;fill-rule:nonzero;stroke:none" />
  </g>
</svg>
